{"accessors" : [{"bufferView" : 0, "byteOffset" : 0, "componentType" : 5123, "count" : 3324, "type" : "SCALAR", "max" : [1231], "min" : [0]}, {"bufferView" : 1, "byteOffset" : 0, "componentType" : 5126, "count" : 1232, "type" : "VEC3", "max" : [111.32735443115234, 149.17532348632812, 6.349999904632568], "min" : [73.22735595703125, 105.57810974121094, 0], "name" : "POSITION"}, {"bufferView" : 1, "byteOffset" : 12, "componentType" : 5126, "count" : 1232, "type" : "VEC2", "max" : [2.1600170135498047, 6.2730631828308105], "min" : [-2.126682996749878, -4.2730631828308105], "name" : "TEXCOORD_0"}, {"bufferView" : 1, "byteOffset" : 20, "componentType" : 5126, "count" : 1232, "type" : "VEC3", "max" : [0.9961987137794495, 0.9961987137794495, 1.0000044107437134], "min" : [-0.9961987137794495, -0.9961987137794495, -1.0000044107437134], "name" : "NORMAL"}, {"bufferView" : 0, "byteOffset" : 6648, "componentType" : 5123, "count" : 2274, "type" : "SCALAR", "max" : [773], "min" : [0]}, {"bufferView" : 2, "byteOffset" : 0, "componentType" : 5126, "count" : 774, "type" : "VEC3", "max" : [119.34497833251953, 196.2025909423828, 6.349999904632568], "min" : [87.59497833251953, 164.5413818359375, 0], "name" : "POSITION"}, {"bufferView" : 2, "byteOffset" : 12, "componentType" : 5126, "count" : 774, "type" : "VEC2", "max" : [1.5343220233917236, 5.947123050689697], "min" : [-1.5343220233917236, -3.9471230506896973], "name" : "TEXCOORD_0"}, {"bufferView" : 2, "byteOffset" : 20, "componentType" : 5126, "count" : 774, "type" : "VEC3", "max" : [1.0000044107437134, 0.9957383871078491, 1.0000044107437134], "min" : [-1.0000044107437134, -0.9957383871078491, -1.0000044107437134], "name" : "NORMAL"}, {"bufferView" : 0, "byteOffset" : 11196, "componentType" : 5123, "count" : 2856, "type" : "SCALAR", "max" : [975], "min" : [0]}, {"bufferView" : 3, "byteOffset" : 0, "componentType" : 5126, "count" : 976, "type" : "VEC3", "max" : [161.55368041992188, 160.32498168945312, 6.349999904632568], "min" : [142.50367736816406, 141.3282470703125, 0], "name" : "POSITION"}, {"bufferView" : 3, "byteOffset" : 12, "componentType" : 5126, "count" : 976, "type" : "VEC2", "max" : [0.9160130023956299, 3.9763429164886475], "min" : [-0.9133250117301941, -1.9763429164886475], "name" : "TEXCOORD_0"}, {"bufferView" : 3, "byteOffset" : 20, "componentType" : 5126, "count" : 976, "type" : "VEC3", "max" : [0.9993951916694641, 0.9986618161201477, 1.0000044107437134], "min" : [-0.9993951916694641, -0.9986618161201477, -1.0000044107437134], "name" : "NORMAL"}, {"bufferView" : 0, "byteOffset" : 16908, "componentType" : 5123, "count" : 3324, "type" : "SCALAR", "max" : [1231], "min" : [0]}, {"bufferView" : 4, "byteOffset" : 0, "componentType" : 5126, "count" : 1232, "type" : "VEC3", "max" : [151.01486206054688, 149.17532348632812, 6.349999904632568], "min" : [112.91485595703125, 105.57810974121094, 0], "name" : "POSITION"}, {"bufferView" : 4, "byteOffset" : 12, "componentType" : 5126, "count" : 1232, "type" : "VEC2", "max" : [2.1600170135498047, 6.2730631828308105], "min" : [-2.126682996749878, -4.2730631828308105], "name" : "TEXCOORD_0"}, {"bufferView" : 4, "byteOffset" : 20, "componentType" : 5126, "count" : 1232, "type" : "VEC3", "max" : [0.9961987137794495, 0.9961987137794495, 1.0000044107437134], "min" : [-0.9961987137794495, -0.9961987137794495, -1.0000044107437134], "name" : "NORMAL"}, {"bufferView" : 0, "byteOffset" : 23556, "componentType" : 5123, "count" : 3324, "type" : "SCALAR", "max" : [1231], "min" : [0]}, {"bufferView" : 5, "byteOffset" : 0, "componentType" : 5126, "count" : 1232, "type" : "VEC3", "max" : [190.70236206054688, 149.17532348632812, 6.349999904632568], "min" : [152.60235595703125, 105.57810974121094, 0], "name" : "POSITION"}, {"bufferView" : 5, "byteOffset" : 12, "componentType" : 5126, "count" : 1232, "type" : "VEC2", "max" : [2.1600170135498047, 6.2730631828308105], "min" : [-2.126682996749878, -4.2730631828308105], "name" : "TEXCOORD_0"}, {"bufferView" : 5, "byteOffset" : 20, "componentType" : 5126, "count" : 1232, "type" : "VEC3", "max" : [0.9961987137794495, 0.9961987137794495, 1.0000044107437134], "min" : [-0.9961987137794495, -0.9961987137794495, -1.0000044107437134], "name" : "NORMAL"}, {"bufferView" : 0, "byteOffset" : 30204, "componentType" : 5123, "count" : 3324, "type" : "SCALAR", "max" : [1231], "min" : [0]}, {"bufferView" : 6, "byteOffset" : 0, "componentType" : 5126, "count" : 1232, "type" : "VEC3", "max" : [91.48360443115234, 114.80493927001953, 6.349999904632568], "min" : [53.38360595703125, 71.20772552490234, 0], "name" : "POSITION"}, {"bufferView" : 6, "byteOffset" : 12, "componentType" : 5126, "count" : 1232, "type" : "VEC2", "max" : [2.1600170135498047, 6.2730631828308105], "min" : [-2.126682996749878, -4.2730631828308105], "name" : "TEXCOORD_0"}, {"bufferView" : 6, "byteOffset" : 20, "componentType" : 5126, "count" : 1232, "type" : "VEC3", "max" : [0.9961987137794495, 0.9961987137794495, 1.0000044107437134], "min" : [-0.9961987137794495, -0.9961987137794495, -1.0000044107437134], "name" : "NORMAL"}, {"bufferView" : 0, "byteOffset" : 36852, "componentType" : 5123, "count" : 3324, "type" : "SCALAR", "max" : [1231], "min" : [0]}, {"bufferView" : 7, "byteOffset" : 0, "componentType" : 5126, "count" : 1232, "type" : "VEC3", "max" : [131.17111206054688, 114.80493927001953, 6.349999904632568], "min" : [93.07110595703125, 71.20772552490234, 0], "name" : "POSITION"}, {"bufferView" : 7, "byteOffset" : 12, "componentType" : 5126, "count" : 1232, "type" : "VEC2", "max" : [2.1600170135498047, 6.2730631828308105], "min" : [-2.126682996749878, -4.2730631828308105], "name" : "TEXCOORD_0"}, {"bufferView" : 7, "byteOffset" : 20, "componentType" : 5126, "count" : 1232, "type" : "VEC3", "max" : [0.9961987137794495, 0.9961987137794495, 1.0000044107437134], "min" : [-0.9961987137794495, -0.9961987137794495, -1.0000044107437134], "name" : "NORMAL"}, {"bufferView" : 0, "byteOffset" : 43500, "componentType" : 5123, "count" : 3324, "type" : "SCALAR", "max" : [1231], "min" : [0]}, {"bufferView" : 8, "byteOffset" : 0, "componentType" : 5126, "count" : 1232, "type" : "VEC3", "max" : [170.85861206054688, 114.80493927001953, 6.349999904632568], "min" : [132.75860595703125, 71.20772552490234, 0], "name" : "POSITION"}, {"bufferView" : 8, "byteOffset" : 12, "componentType" : 5126, "count" : 1232, "type" : "VEC2", "max" : [2.1600170135498047, 6.2730631828308105], "min" : [-2.126682996749878, -4.2730631828308105], "name" : "TEXCOORD_0"}, {"bufferView" : 8, "byteOffset" : 20, "componentType" : 5126, "count" : 1232, "type" : "VEC3", "max" : [0.9961987137794495, 0.9961987137794495, 1.0000044107437134], "min" : [-0.9961987137794495, -0.9961987137794495, -1.0000044107437134], "name" : "NORMAL"}, {"bufferView" : 0, "byteOffset" : 50148, "componentType" : 5123, "count" : 3324, "type" : "SCALAR", "max" : [1231], "min" : [0]}, {"bufferView" : 9, "byteOffset" : 0, "componentType" : 5126, "count" : 1232, "type" : "VEC3", "max" : [71.63985443115234, 80.43456268310547, 6.349999904632568], "min" : [33.53985595703125, 36.837345123291016, 0], "name" : "POSITION"}, {"bufferView" : 9, "byteOffset" : 12, "componentType" : 5126, "count" : 1232, "type" : "VEC2", "max" : [2.1600170135498047, 6.2730631828308105], "min" : [-2.126682996749878, -4.2730631828308105], "name" : "TEXCOORD_0"}, {"bufferView" : 9, "byteOffset" : 20, "componentType" : 5126, "count" : 1232, "type" : "VEC3", "max" : [0.9961987137794495, 0.9961987137794495, 1.0000044107437134], "min" : [-0.9961987137794495, -0.9961987137794495, -1.0000044107437134], "name" : "NORMAL"}, {"bufferView" : 0, "byteOffset" : 56796, "componentType" : 5123, "count" : 3324, "type" : "SCALAR", "max" : [1231], "min" : [0]}, {"bufferView" : 10, "byteOffset" : 0, "componentType" : 5126, "count" : 1232, "type" : "VEC3", "max" : [111.32735443115234, 80.43456268310547, 6.349999904632568], "min" : [73.22735595703125, 36.837345123291016, 0], "name" : "POSITION"}, {"bufferView" : 10, "byteOffset" : 12, "componentType" : 5126, "count" : 1232, "type" : "VEC2", "max" : [2.1600170135498047, 6.2730631828308105], "min" : [-2.126682996749878, -4.2730631828308105], "name" : "TEXCOORD_0"}, {"bufferView" : 10, "byteOffset" : 20, "componentType" : 5126, "count" : 1232, "type" : "VEC3", "max" : [0.9961987137794495, 0.9961987137794495, 1.0000044107437134], "min" : [-0.9961987137794495, -0.9961987137794495, -1.0000044107437134], "name" : "NORMAL"}, {"bufferView" : 0, "byteOffset" : 63444, "componentType" : 5123, "count" : 3324, "type" : "SCALAR", "max" : [1231], "min" : [0]}, {"bufferView" : 11, "byteOffset" : 0, "componentType" : 5126, "count" : 1232, "type" : "VEC3", "max" : [151.01486206054688, 80.43456268310547, 6.349999904632568], "min" : [112.91485595703125, 36.837345123291016, 0], "name" : "POSITION"}, {"bufferView" : 11, "byteOffset" : 12, "componentType" : 5126, "count" : 1232, "type" : "VEC2", "max" : [2.1600170135498047, 6.2730631828308105], "min" : [-2.126682996749878, -4.2730631828308105], "name" : "TEXCOORD_0"}, {"bufferView" : 11, "byteOffset" : 20, "componentType" : 5126, "count" : 1232, "type" : "VEC3", "max" : [0.9961987137794495, 0.9961987137794495, 1.0000044107437134], "min" : [-0.9961987137794495, -0.9961987137794495, -1.0000044107437134], "name" : "NORMAL"}, {"bufferView" : 0, "byteOffset" : 70092, "componentType" : 5123, "count" : 2856, "type" : "SCALAR", "max" : [975], "min" : [0]}, {"bufferView" : 12, "byteOffset" : 0, "componentType" : 5126, "count" : 976, "type" : "VEC3", "max" : [120.89588165283203, 161.9375, 6.349999904632568], "min" : [101.84587860107422, 142.94076538085938, 0], "name" : "POSITION"}, {"bufferView" : 12, "byteOffset" : 12, "componentType" : 5126, "count" : 976, "type" : "VEC2", "max" : [0.9160130023956299, 3.9763429164886475], "min" : [-0.9133250117301941, -1.9763429164886475], "name" : "TEXCOORD_0"}, {"bufferView" : 12, "byteOffset" : 20, "componentType" : 5126, "count" : 976, "type" : "VEC3", "max" : [0.9993951916694641, 0.9986618161201477, 1.0000044107437134], "min" : [-0.9993951916694641, -0.9986618161201477, -1.0000044107437134], "name" : "NORMAL"}, {"bufferView" : 0, "byteOffset" : 75804, "componentType" : 5123, "count" : 2856, "type" : "SCALAR", "max" : [975], "min" : [0]}, {"bufferView" : 13, "byteOffset" : 0, "componentType" : 5126, "count" : 976, "type" : "VEC3", "max" : [141.37298583984375, 170.19825744628906, 6.349999904632568], "min" : [122.32299041748047, 151.20152282714844, 0], "name" : "POSITION"}, {"bufferView" : 13, "byteOffset" : 12, "componentType" : 5126, "count" : 976, "type" : "VEC2", "max" : [0.9160130023956299, 3.9763429164886475], "min" : [-0.9133250117301941, -1.9763429164886475], "name" : "TEXCOORD_0"}, {"bufferView" : 13, "byteOffset" : 20, "componentType" : 5126, "count" : 976, "type" : "VEC3", "max" : [0.9993951916694641, 0.9986618161201477, 1.0000044107437134], "min" : [-0.9993951916694641, -0.9986618161201477, -1.0000044107437134], "name" : "NORMAL"}, {"bufferView" : 0, "byteOffset" : 81516, "componentType" : 5123, "count" : 2856, "type" : "SCALAR", "max" : [975], "min" : [0]}, {"bufferView" : 14, "byteOffset" : 0, "componentType" : 5126, "count" : 976, "type" : "VEC3", "max" : [181.282958984375, 170.60423278808594, 6.349999904632568], "min" : [162.2329559326172, 151.6074981689453, 0], "name" : "POSITION"}, {"bufferView" : 14, "byteOffset" : 12, "componentType" : 5126, "count" : 976, "type" : "VEC2", "max" : [0.9160130023956299, 3.9763429164886475], "min" : [-0.9133250117301941, -1.9763429164886475], "name" : "TEXCOORD_0"}, {"bufferView" : 14, "byteOffset" : 20, "componentType" : 5126, "count" : 976, "type" : "VEC3", "max" : [0.9993951916694641, 0.9986618161201477, 1.0000044107437134], "min" : [-0.9993951916694641, -0.9986618161201477, -1.0000044107437134], "name" : "NORMAL"}, {"bufferView" : 0, "byteOffset" : 87228, "componentType" : 5123, "count" : 2856, "type" : "SCALAR", "max" : [975], "min" : [0]}, {"bufferView" : 15, "byteOffset" : 0, "componentType" : 5126, "count" : 976, "type" : "VEC3", "max" : [161.5234832763672, 182.15591430664062, 6.349999904632568], "min" : [142.47348022460938, 163.1591796875, 0], "name" : "POSITION"}, {"bufferView" : 15, "byteOffset" : 12, "componentType" : 5126, "count" : 976, "type" : "VEC2", "max" : [0.9160130023956299, 3.9763429164886475], "min" : [-0.9133250117301941, -1.9763429164886475], "name" : "TEXCOORD_0"}, {"bufferView" : 15, "byteOffset" : 20, "componentType" : 5126, "count" : 976, "type" : "VEC3", "max" : [0.9993951916694641, 0.9986618161201477, 1.0000044107437134], "min" : [-0.9993951916694641, -0.9986618161201477, -1.0000044107437134], "name" : "NORMAL"}, {"bufferView" : 0, "byteOffset" : 92940, "componentType" : 5123, "count" : 2856, "type" : "SCALAR", "max" : [975], "min" : [0]}, {"bufferView" : 16, "byteOffset" : 0, "componentType" : 5126, "count" : 976, "type" : "VEC3", "max" : [142.0937957763672, 191.3542022705078, 6.349999904632568], "min" : [123.04379272460938, 172.3574676513672, 0], "name" : "POSITION"}, {"bufferView" : 16, "byteOffset" : 12, "componentType" : 5126, "count" : 976, "type" : "VEC2", "max" : [0.9160130023956299, 3.9763429164886475], "min" : [-0.9133250117301941, -1.9763429164886475], "name" : "TEXCOORD_0"}, {"bufferView" : 16, "byteOffset" : 20, "componentType" : 5126, "count" : 976, "type" : "VEC3", "max" : [0.9993951916694641, 0.9986618161201477, 1.0000044107437134], "min" : [-0.9993951916694641, -0.9986618161201477, -1.0000044107437134], "name" : "NORMAL"}, {"bufferView" : 0, "byteOffset" : 98652, "componentType" : 5123, "count" : 2274, "type" : "SCALAR", "max" : [773], "min" : [0]}, {"bufferView" : 17, "byteOffset" : 0, "componentType" : 5126, "count" : 774, "type" : "VEC3", "max" : [91.4652099609375, 177.57872009277344, 6.349999904632568], "min" : [59.715206146240234, 145.91749572753906, 0], "name" : "POSITION"}, {"bufferView" : 17, "byteOffset" : 12, "componentType" : 5126, "count" : 774, "type" : "VEC2", "max" : [1.5343220233917236, 5.947123050689697], "min" : [-1.5343220233917236, -3.9471230506896973], "name" : "TEXCOORD_0"}, {"bufferView" : 17, "byteOffset" : 20, "componentType" : 5126, "count" : 774, "type" : "VEC3", "max" : [1.0000044107437134, 0.9957383871078491, 1.0000044107437134], "min" : [-1.0000044107437134, -0.9957383871078491, -1.0000044107437134], "name" : "NORMAL"}, {"bufferView" : 0, "byteOffset" : 103200, "componentType" : 5123, "count" : 2274, "type" : "SCALAR", "max" : [773], "min" : [0]}, {"bufferView" : 18, "byteOffset" : 0, "componentType" : 5126, "count" : 774, "type" : "VEC3", "max" : [69.2476806640625, 142.45877075195312, 6.349999904632568], "min" : [37.497684478759766, 110.79754638671875, 0], "name" : "POSITION"}, {"bufferView" : 18, "byteOffset" : 12, "componentType" : 5126, "count" : 774, "type" : "VEC2", "max" : [1.5343220233917236, 5.947123050689697], "min" : [-1.5343220233917236, -3.9471230506896973], "name" : "TEXCOORD_0"}, {"bufferView" : 18, "byteOffset" : 20, "componentType" : 5126, "count" : 774, "type" : "VEC3", "max" : [1.0000044107437134, 0.9957383871078491, 1.0000044107437134], "min" : [-1.0000044107437134, -0.9957383871078491, -1.0000044107437134], "name" : "NORMAL"}], "asset" : {"generator" : "Aspose.3D 24.6.0", "version" : "2.0"}, "buffers" : [{"uri" : "buffer.bin", "byteLength" : 724336}], "bufferViews" : [{"buffer" : 0, "byteOffset" : 0, "byteLength" : 107748, "target" : 34963}, {"buffer" : 0, "byteOffset" : 107752, "byteLength" : 39424, "byteStride" : 32, "target" : 34962}, {"buffer" : 0, "byteOffset" : 147180, "byteLength" : 24768, "byteStride" : 32, "target" : 34962}, {"buffer" : 0, "byteOffset" : 171952, "byteLength" : 31232, "byteStride" : 32, "target" : 34962}, {"buffer" : 0, "byteOffset" : 203188, "byteLength" : 39424, "byteStride" : 32, "target" : 34962}, {"buffer" : 0, "byteOffset" : 242616, "byteLength" : 39424, "byteStride" : 32, "target" : 34962}, {"buffer" : 0, "byteOffset" : 282044, "byteLength" : 39424, "byteStride" : 32, "target" : 34962}, {"buffer" : 0, "byteOffset" : 321472, "byteLength" : 39424, "byteStride" : 32, "target" : 34962}, {"buffer" : 0, "byteOffset" : 360900, "byteLength" : 39424, "byteStride" : 32, "target" : 34962}, {"buffer" : 0, "byteOffset" : 400328, "byteLength" : 39424, "byteStride" : 32, "target" : 34962}, {"buffer" : 0, "byteOffset" : 439756, "byteLength" : 39424, "byteStride" : 32, "target" : 34962}, {"buffer" : 0, "byteOffset" : 479184, "byteLength" : 39424, "byteStride" : 32, "target" : 34962}, {"buffer" : 0, "byteOffset" : 518612, "byteLength" : 31232, "byteStride" : 32, "target" : 34962}, {"buffer" : 0, "byteOffset" : 549848, "byteLength" : 31232, "byteStride" : 32, "target" : 34962}, {"buffer" : 0, "byteOffset" : 581084, "byteLength" : 31232, "byteStride" : 32, "target" : 34962}, {"buffer" : 0, "byteOffset" : 612320, "byteLength" : 31232, "byteStride" : 32, "target" : 34962}, {"buffer" : 0, "byteOffset" : 643556, "byteLength" : 31232, "byteStride" : 32, "target" : 34962}, {"buffer" : 0, "byteOffset" : 674792, "byteLength" : 24768, "byteStride" : 32, "target" : 34962}, {"buffer" : 0, "byteOffset" : 699564, "byteLength" : 24768, "byteStride" : 32, "target" : 34962}], "meshes" : [{"primitives" : [{"attributes" : {"POSITION" : 1, "TEXCOORD_0" : 2, "NORMAL" : 3}, "indices" : 0, "mode" : 4}], "name" : ""}, {"primitives" : [{"attributes" : {"POSITION" : 5, "TEXCOORD_0" : 6, "NORMAL" : 7}, "indices" : 4, "mode" : 4}], "name" : ""}, {"primitives" : [{"attributes" : {"POSITION" : 9, "TEXCOORD_0" : 10, "NORMAL" : 11}, "indices" : 8, "mode" : 4}], "name" : ""}, {"primitives" : [{"attributes" : {"POSITION" : 13, "TEXCOORD_0" : 14, "NORMAL" : 15}, "indices" : 12, "mode" : 4}], "name" : ""}, {"primitives" : [{"attributes" : {"POSITION" : 17, "TEXCOORD_0" : 18, "NORMAL" : 19}, "indices" : 16, "mode" : 4}], "name" : ""}, {"primitives" : [{"attributes" : {"POSITION" : 21, "TEXCOORD_0" : 22, "NORMAL" : 23}, "indices" : 20, "mode" : 4}], "name" : ""}, {"primitives" : [{"attributes" : {"POSITION" : 25, "TEXCOORD_0" : 26, "NORMAL" : 27}, "indices" : 24, "mode" : 4}], "name" : ""}, {"primitives" : [{"attributes" : {"POSITION" : 29, "TEXCOORD_0" : 30, "NORMAL" : 31}, "indices" : 28, "mode" : 4}], "name" : ""}, {"primitives" : [{"attributes" : {"POSITION" : 33, "TEXCOORD_0" : 34, "NORMAL" : 35}, "indices" : 32, "mode" : 4}], "name" : ""}, {"primitives" : [{"attributes" : {"POSITION" : 37, "TEXCOORD_0" : 38, "NORMAL" : 39}, "indices" : 36, "mode" : 4}], "name" : ""}, {"primitives" : [{"attributes" : {"POSITION" : 41, "TEXCOORD_0" : 42, "NORMAL" : 43}, "indices" : 40, "mode" : 4}], "name" : ""}, {"primitives" : [{"attributes" : {"POSITION" : 45, "TEXCOORD_0" : 46, "NORMAL" : 47}, "indices" : 44, "mode" : 4}], "name" : ""}, {"primitives" : [{"attributes" : {"POSITION" : 49, "TEXCOORD_0" : 50, "NORMAL" : 51}, "indices" : 48, "mode" : 4}], "name" : ""}, {"primitives" : [{"attributes" : {"POSITION" : 53, "TEXCOORD_0" : 54, "NORMAL" : 55}, "indices" : 52, "mode" : 4}], "name" : ""}, {"primitives" : [{"attributes" : {"POSITION" : 57, "TEXCOORD_0" : 58, "NORMAL" : 59}, "indices" : 56, "mode" : 4}], "name" : ""}, {"primitives" : [{"attributes" : {"POSITION" : 61, "TEXCOORD_0" : 62, "NORMAL" : 63}, "indices" : 60, "mode" : 4}], "name" : ""}, {"primitives" : [{"attributes" : {"POSITION" : 65, "TEXCOORD_0" : 66, "NORMAL" : 67}, "indices" : 64, "mode" : 4}], "name" : ""}, {"primitives" : [{"attributes" : {"POSITION" : 69, "TEXCOORD_0" : 70, "NORMAL" : 71}, "indices" : 68, "mode" : 4}], "name" : ""}], "nodes" : [{"mesh" : 0, "name" : "Body1"}, {"mesh" : 1, "name" : "Body1:1"}, {"mesh" : 2, "name" : "Body1:2"}, {"mesh" : 3, "name" : "Body1:3"}, {"mesh" : 4, "name" : "Body1:4"}, {"mesh" : 5, "name" : "Body1:5"}, {"mesh" : 6, "name" : "Body1:6"}, {"mesh" : 7, "name" : "Body1:7"}, {"mesh" : 8, "name" : "Body1:8"}, {"mesh" : 9, "name" : "Body1:9"}, {"mesh" : 10, "name" : "Body1:10"}, {"mesh" : 11, "name" : "Body1:11"}, {"mesh" : 12, "name" : "Body1:12"}, {"mesh" : 13, "name" : "Body1:13"}, {"mesh" : 14, "name" : "Body1:14"}, {"mesh" : 15, "name" : "Body1:15"}, {"mesh" : 16, "name" : "Body1:16"}, {"mesh" : 17, "name" : "Body1:17"}], "scene" : 0, "scenes" : [{"nodes" : [0, 1, 2, 3, 4, 5, 6, 7, 8, 9, 10, 11, 12, 13, 14, 15, 16, 17]}]}